<svg xmlns="http://www.w3.org/2000/svg" viewBox="0 0 300 190">
<rect width="300" height="190" rx="12" fill="#f7f9fa"/>
<g transform="translate(150 91)"><g fill="#edf1f5" stroke="#64748b" stroke-width="2"><rect x="-20" y="-22" width="40" height="40" rx="4"/><rect x="-70" y="-4" width="34" height="34" rx="4"/><rect x="36" y="-4" width="34" height="34" rx="4"/><rect x="-45" y="-66" width="34" height="34" rx="4"/><rect x="11" y="-66" width="34" height="34" rx="4"/></g><g stroke="#8a95a4" stroke-width="2"><path d="M-20-2l-16 8M20-2l16 8M-8-22l-20-10M8-22l20-10"/></g><path d="M0-14l12 5v10c0 10-5 17-12 22-7-5-12-12-12-22V-9z" fill="#f3e6ea" stroke="#9a1b3f" stroke-width="2"/><path d="M-5 2l4 4 7-10" fill="none" stroke="#9a1b3f" stroke-width="2.2"/></g>
<g stroke="#5f7085" stroke-width="2" fill="#fff"><rect x="25" y="48" width="45" height="27" rx="4"/><circle cx="48" cy="52" r="4" fill="#5f7085"/><path d="M34 67h28"/><rect x="230" y="48" width="45" height="27" rx="4"/><circle cx="252" cy="52" r="4" fill="#5f7085"/><path d="M239 67h28"/><rect x="25" y="118" width="45" height="27" rx="4"/><circle cx="48" cy="122" r="4" fill="#5f7085"/><path d="M34 137h28"/><rect x="230" y="118" width="45" height="27" rx="4"/><circle cx="252" cy="122" r="4" fill="#5f7085"/><path d="M239 137h28"/></g>
<g stroke="#bcc5cf" stroke-width="2" stroke-dasharray="5 4"><path d="M70 61l48 17M230 61l-48 17M70 131l48-22M230 131l-48-22"/></g>
<text x="150" y="174" text-anchor="middle" font-family="Arial,sans-serif" font-size="13" font-weight="600" fill="#525b68">Zero-Trust IoT Sharing</text>
</svg>